<?xml version="1.0" encoding="utf-8"?>
<!-- Generator: Adobe Illustrator 16.0.0, SVG Export Plug-In . SVG Version: 6.00 Build 0)  -->
<!DOCTYPE svg PUBLIC "-//W3C//DTD SVG 1.1//EN" "http://www.w3.org/Graphics/SVG/1.1/DTD/svg11.dtd">
<svg version="1.1" id="Layer_1" xmlns="http://www.w3.org/2000/svg" xmlns:xlink="http://www.w3.org/1999/xlink" x="0px" y="0px"
	 width="512px" height="512px" viewBox="0 0 512 512" enable-background="new 0 0 512 512" xml:space="preserve">
<path d="M256.001,512C114.841,512,0,397.159,0,256S114.841,0,256.001,0C397.162,0,512,114.841,512,256S397.162,512,256.001,512z
	 M471.899,291.043c-7.481-2.359-67.683-20.316-136.206-9.35c28.603,78.594,40.24,142.604,42.479,155.904
	C427.23,404.43,462.152,351.885,471.899,291.043z M341.416,457.619c-3.253-19.186-15.949-86.045-46.648-165.82
	c-0.48,0.164-0.961,0.32-1.44,0.486c-123.335,42.979-167.608,128.508-171.543,136.552c37.075,28.912,83.668,46.16,134.218,46.16
	C286.292,474.997,315.161,468.802,341.416,457.619z M93.549,402.539c4.954-8.48,64.965-107.842,177.738-144.297
	c2.852-0.92,5.725-1.785,8.618-2.6c-5.49-12.422-11.47-24.857-17.728-37.108c-109.2,32.68-215.163,31.315-224.73,31.118
	c-0.066,2.221-0.111,4.445-0.111,6.683C37.336,312.495,58.626,363.772,93.549,402.539z M41.956,211.548
	c9.779,0.13,99.868,0.521,202.151-26.641c-36.23-64.406-75.306-118.555-81.071-126.46C101.862,87.301,56.135,143.695,41.956,211.548
	z M204.759,43.75c6.044,8.092,45.759,62.174,81.591,128.007c77.754-29.142,110.669-73.385,114.604-78.987
	c-38.615-34.259-89.391-55.1-144.951-55.1C238.357,37.67,221.202,39.786,204.759,43.75z M425.261,118.056
	c-4.607,6.237-41.252,53.209-122.101,86.217c5.089,10.416,9.967,21.009,14.508,31.672c1.607,3.78,3.177,7.542,4.709,11.285
	c72.759-9.149,145.052,5.514,152.263,7.039C474.156,202.657,455.715,155.264,425.261,118.056z"/>
</svg>
