<?xml version="1.0" encoding="utf-8"?>
<!-- Generator: Adobe Illustrator 16.0.0, SVG Export Plug-In . SVG Version: 6.00 Build 0)  -->
<!DOCTYPE svg PUBLIC "-//W3C//DTD SVG 1.1//EN" "http://www.w3.org/Graphics/SVG/1.1/DTD/svg11.dtd">
<svg version="1.1" id="Layer_1" xmlns="http://www.w3.org/2000/svg" xmlns:xlink="http://www.w3.org/1999/xlink" x="0px" y="0px"
	 width="512px" height="512px" viewBox="0 0 512 512" enable-background="new 0 0 512 512" xml:space="preserve">
<g>
	<g>
		<path d="M256,17.719c65.943,0,122.359,23.444,169.247,70.332s70.331,103.303,70.331,169.247
			c0,66.194-23.381,122.673-70.144,169.435c-46.762,46.763-103.24,70.144-169.435,70.144c-65.943,0-122.359-23.443-169.247-70.331
			C39.866,379.656,16.422,323.24,16.422,257.297S39.866,134.938,86.753,88.05C133.641,41.163,190.057,17.719,256,17.719z
			 M256,473.933c59.425,0,110.324-21.25,152.698-63.749c42.374-42.5,63.562-93.462,63.562-152.887
			c0-59.424-21.188-110.324-63.562-152.698C366.324,62.225,315.425,41.037,256,41.037c-59.424,0-110.324,21.188-152.698,63.562
			C60.928,146.973,39.74,197.873,39.74,257.297c0,59.425,21.188,110.387,63.562,152.887
			C145.676,452.683,196.576,473.933,256,473.933z M340.623,168.913c8.525,0,15.797,3.009,21.814,9.026s9.026,13.164,9.026,21.438
			c0,8.525-3.009,15.796-9.026,21.814s-13.289,9.026-21.814,9.026c-8.273,0-15.482-3.009-21.626-9.026
			c-6.143-6.018-9.214-13.289-9.214-21.814c0-8.274,3.071-15.42,9.214-21.438C325.141,171.921,332.35,168.913,340.623,168.913z
			 M171.376,168.913c8.274,0,15.483,3.009,21.626,9.026s9.215,13.164,9.215,21.438c0,8.525-3.009,15.796-9.027,21.814
			c-6.018,6.018-13.289,9.026-21.814,9.026c-8.525,0-15.796-3.009-21.814-9.026s-9.026-13.289-9.026-21.814
			c0-8.274,3.009-15.42,9.026-21.438S162.852,168.913,171.376,168.913z M372.969,372.009l-16.925,10.154
			c-10.531-17.301-24.886-30.652-43.064-40.055c-18.178-9.402-37.171-14.104-56.979-14.104c-19.808,0-38.801,4.702-56.979,14.104
			c-18.179,9.402-32.533,22.754-43.064,40.055l-16.925-10.154c26.578-50.899,65.567-76.35,116.968-76.35
			C307.4,295.659,346.391,321.109,372.969,372.009z"/>
	</g>
</g>
</svg>
