<?xml version="1.0" encoding="utf-8"?>
<!-- Generator: Adobe Illustrator 16.0.0, SVG Export Plug-In . SVG Version: 6.00 Build 0)  -->
<!DOCTYPE svg PUBLIC "-//W3C//DTD SVG 1.1//EN" "http://www.w3.org/Graphics/SVG/1.1/DTD/svg11.dtd">
<svg version="1.1" id="Layer_1" xmlns="http://www.w3.org/2000/svg" xmlns:xlink="http://www.w3.org/1999/xlink" x="0px" y="0px"
	 width="512px" height="512px" viewBox="0 0 512 512" enable-background="new 0 0 512 512" xml:space="preserve">
<path fill="#231F20" d="M185.463,379.731l-20.569,20.574c-7.567,7.57-12.819,16.558-15.841,26.103c0,0-10.301,39.036,15.841,65.175
	c25.205,25.204,66.073,25.204,91.279,0L429.722,318.03c25.208-25.205,25.208-66.076,0-91.281L324.738,121.766l10.077-10.072
	c25.205-25.206,25.205-66.069,0-91.279c-25.211-25.207-66.083-25.203-91.278,0L80.261,183.689l0,0c-0.708,0.71-1.323,1.47-1.992,2.2
	c-0.818,0.898-1.679,1.769-2.436,2.699c-20.487,25.12-19.191,62.041,3.817,85.702c0.004,0,0.007,0.008,0.011,0.012L185.463,379.731z
	 M233.028,426.505c8.813,8.813,10.901,21.777,6.305,32.583l-7.189,7.19c-11.588,11.594-30.36,11.594-41.945,0.008
	c-11.582-11.587-11.585-30.364,0.003-41.944l20.326-20.332L233.028,426.505z M105.568,249.657
	c-5.632-5.632-8.501-12.959-8.657-20.34c0.16-7.372,3.033-14.694,8.657-20.319c11.516-11.516,30.137-11.574,41.736-0.189
	c9.847,10.031,11.084,25.308,3.782,36.708l24.952,24.953L300.102,146.4L406.58,252.945c5.401,5.401,8.256,12.361,8.615,19.449
	c-0.366,7.073-3.214,14.04-8.615,19.444L272.003,426.412c-3.015-9.545-8.263-18.536-15.83-26.1L105.568,249.657z M311.667,85.505
	L186.691,210.481c-2.817-10-8.098-19.447-15.832-27.399c-7.429-7.225-16.155-12.294-25.427-15.229L269.724,43.56
	c11.579-11.581,30.364-11.581,41.94,0C323.247,55.143,323.247,73.924,311.667,85.505z"/>
</svg>
